# Blender 3.4.1
# www.blender.org
o Low_poly_window_glass
v 0.000000 8.000000 0.000000
v 0.000000 0.000000 3.000000
v -0.000000 0.000000 -3.000000
v 0.000000 4.000000 2.083086
v -0.000000 4.000000 -2.083086
v 0.000000 6.000000 1.392206
v -0.000000 6.000000 -1.392206
v 0.000000 7.000000 0.908956
v -0.000000 7.000000 -0.908956
v 0.000000 7.500000 0.557647
v -0.000000 7.500000 -0.557647
v 0.000000 7.750000 0.362258
v -0.000000 7.750000 -0.362258
v 0.000000 7.949960 0.151772
v -0.000000 7.949960 -0.151772
v 0.000000 2.000000 2.623278
v -0.000000 2.000000 -2.623278
vn 1.0000 -0.0000 -0.0000
vt 0.500000 0.975589
vt 0.850042 0.005589
vt 0.149958 0.005589
vt 0.743056 0.490589
vt 0.256944 0.490589
vt 0.662443 0.733089
vt 0.337557 0.733089
vt 0.606058 0.854339
vt 0.393943 0.854339
vt 0.565067 0.914964
vt 0.434933 0.914964
vt 0.542268 0.945276
vt 0.457732 0.945276
vt 0.517709 0.969522
vt 0.482291 0.969522
vt 0.806086 0.248089
vt 0.193914 0.248089
s 1
f 6/6/1 4/4/1 7/7/1
f 4/4/1 16/16/1 17/17/1
f 16/16/1 2/2/1 17/17/1
f 2/2/1 3/3/1 17/17/1
f 17/17/1 5/5/1 4/4/1
f 5/5/1 7/7/1 4/4/1
f 7/7/1 9/9/1 8/8/1
f 9/9/1 11/11/1 10/10/1
f 11/11/1 13/13/1 10/10/1
f 13/13/1 15/15/1 12/12/1
f 10/10/1 13/13/1 12/12/1
f 15/15/1 1/1/1 14/14/1
f 14/14/1 12/12/1 15/15/1
f 10/10/1 8/8/1 9/9/1
f 8/8/1 6/6/1 7/7/1
