# Blender 3.4.1
# www.blender.org
mtllib Small window LP.mtl
o Window_low_poly
v 0.490393 -0.000000 -1.297545
v 0.461940 -0.000000 -1.391342
v 0.353553 -0.000000 -1.553553
v 0.277785 -0.000000 -1.615735
v 0.191342 0.000000 -1.661940
v -0.000000 0.000000 -1.700000
v -0.097545 0.000000 -1.690393
v -0.191342 0.000000 -1.661940
v -0.415735 0.000000 -1.477785
v -0.500000 0.000000 -0.200000
v 0.490393 0.100000 -1.297545
v 0.500000 0.100000 -1.200000
v 0.415735 0.100000 -1.477785
v 0.353553 0.100000 -1.553553
v 0.277785 0.100000 -1.615735
v 0.097545 0.100000 -1.690393
v -0.097545 0.100000 -1.690393
v -0.191342 0.100000 -1.661940
v -0.490393 0.100000 -1.297545
v 0.500000 -0.000000 -1.200000
v 0.415735 -0.000000 -1.477785
v 0.097545 0.000000 -1.690393
v -0.277785 0.000000 -1.615735
v -0.353553 0.000000 -1.553553
v -0.461940 0.000000 -1.391342
v -0.490393 0.000000 -1.297545
v -0.500000 0.000000 -1.200000
v 0.500000 -0.000000 -0.200000
v 0.461940 0.100000 -1.391342
v 0.191342 0.100000 -1.661940
v -0.000000 0.100000 -1.700000
v -0.277785 0.100000 -1.615735
v -0.353553 0.100000 -1.553553
v -0.415735 0.100000 -1.477785
v -0.461940 0.100000 -1.391342
v -0.500000 0.100000 -1.200000
v 0.500000 0.100000 -0.200000
v -0.500000 0.100000 -0.200000
v 0.598279 -0.050000 -1.319005
v 0.609868 -0.050000 -1.205397
v 0.563567 -0.050000 -1.433437
v 0.507196 -0.050000 -1.538898
v 0.431335 -0.050000 -1.631335
v 0.338898 -0.050000 -1.707196
v 0.233437 -0.050000 -1.763566
v 0.119005 -0.050000 -1.798279
v -0.000000 -0.050000 -1.810000
v -0.119005 -0.050000 -1.798279
v -0.233437 -0.050000 -1.763566
v -0.338898 -0.050000 -1.707196
v -0.431335 -0.050000 -1.631335
v -0.507196 -0.050000 -1.538898
v -0.563567 -0.050000 -1.433437
v -0.598279 -0.050000 -1.319005
v -0.609868 -0.050000 -1.205397
v 0.610000 -0.050000 -0.200000
v -0.610000 -0.050000 -0.200000
v 0.598279 0.050000 -1.319005
v 0.609868 0.050000 -1.205397
v 0.563567 0.050000 -1.433437
v 0.507196 0.050000 -1.538898
v 0.431335 0.050000 -1.631335
v 0.338898 0.050000 -1.707196
v 0.233437 0.050000 -1.763566
v 0.119005 0.050000 -1.798279
v -0.000000 0.050000 -1.810000
v -0.119005 0.050000 -1.798279
v -0.233437 0.050000 -1.763566
v -0.338898 0.050000 -1.707196
v -0.431335 0.050000 -1.631335
v -0.507196 0.050000 -1.538898
v -0.563567 0.050000 -1.433437
v -0.598279 0.050000 -1.319005
v -0.609868 0.050000 -1.205397
v 0.610000 0.050000 -0.200000
v -0.610000 0.050000 -0.200000
v -0.610000 0.050000 0.000000
v 0.610000 0.050000 0.000000
v -0.610000 -0.050000 0.000000
v 0.610000 -0.050000 0.000000
v 0.500000 0.200000 -0.200000
v -0.500000 0.200000 -0.200000
v -0.500000 0.200000 -0.100000
v 0.500000 0.200000 -0.100000
vn -0.0000 1.0000 -0.0000
vn 0.0407 0.9096 -0.4135
vn 0.1206 0.9096 -0.3976
vn 0.1958 0.9096 -0.3664
vn 0.2636 0.9096 -0.3212
vn -0.4138 0.9104 -0.0000
vn 0.3212 0.9096 -0.2636
vn 0.4138 0.9104 -0.0000
vn 0.3664 0.9096 -0.1958
vn -0.4122 0.9102 -0.0406
vn 0.3976 0.9096 -0.1206
vn -0.3976 0.9096 -0.1206
vn 0.7730 -0.0000 -0.6344
vn -1.0000 -0.0000 -0.0001
vn -0.6344 -0.0000 -0.7730
vn 0.6344 -0.0000 -0.7730
vn -0.7730 -0.0000 -0.6344
vn 0.4714 -0.0000 -0.8819
vn -0.8819 -0.0000 -0.4714
vn 0.2903 -0.0000 -0.9569
vn -0.9569 -0.0000 -0.2903
vn 0.0980 -0.0000 -0.9952
vn 0.9948 -0.0000 -0.1015
vn -0.9948 -0.0000 -0.1015
vn -0.0980 -0.0000 -0.9952
vn 0.9569 -0.0000 -0.2903
vn 1.0000 -0.0000 -0.0001
vn -0.2903 -0.0000 -0.9569
vn 0.8819 -0.0000 -0.4714
vn -0.4714 -0.0000 -0.8819
vn 0.8064 0.5914 -0.0000
vn -0.0407 0.9096 -0.4135
vn -0.1206 0.9096 -0.3976
vn -0.1958 0.9096 -0.3664
vn -0.2636 0.9096 -0.3212
vn -0.3212 0.9096 -0.2636
vn -0.3664 0.9096 -0.1958
vn 0.4122 0.9102 -0.0406
vn -0.0000 -0.0000 -1.0000
vn -0.0000 0.5547 0.8321
vn -0.0000 -0.0000 1.0000
vn -1.0000 -0.0000 -0.0000
vn 1.0000 -0.0000 -0.0000
vn -0.9952 -0.0000 0.0980
vn -0.9569 -0.0000 0.2903
vn -0.8819 -0.0000 0.4714
vn -0.7730 -0.0000 0.6344
vn -0.6344 -0.0000 0.7730
vn -0.4714 -0.0000 0.8819
vn -0.2903 -0.0000 0.9569
vn -0.0980 -0.0000 0.9952
vn 0.9952 -0.0000 0.0980
vn 0.9569 -0.0000 0.2903
vn 0.8819 -0.0000 0.4714
vn 0.7730 -0.0000 0.6344
vn 0.6344 -0.0000 0.7730
vn 0.4714 -0.0000 0.8819
vn 0.2903 -0.0000 0.9569
vn 0.0980 -0.0000 0.9952
vn -0.8064 0.5914 -0.0000
vn -0.4142 0.9102 -0.0001
vn 0.4142 0.9102 -0.0001
vn -0.4132 0.9097 -0.0421
vn 0.4132 0.9097 -0.0421
vt 0.113158 0.895145
vt 0.441768 0.488571
vt 0.924366 0.738075
vt 0.429341 0.529540
vt 0.070346 0.895145
vt 0.967179 0.551973
vt 0.396371 0.894809
vt 0.381999 0.600392
vt 0.291525 0.894809
vt 0.348904 0.627552
vt 0.353559 0.894809
vt 0.924366 0.533618
vt 0.311147 0.647734
vt 0.967179 0.533618
vt 0.255198 0.895295
vt 0.967179 0.800110
vt 0.227571 0.664358
vt 0.967179 0.657686
vt 0.184965 0.660162
vt 0.193164 0.895295
vt 0.924366 0.800110
vt 0.143996 0.647734
vt 0.710341 0.807970
vt 0.150351 0.895295
vt 0.045984 0.567298
vt 0.051990 0.895145
vt 0.853234 0.924178
vt 0.772844 0.554035
vt 0.009178 0.009178
vt 0.464320 0.057224
vt 0.084474 0.735280
vt 0.154894 0.753771
vt 0.924366 0.781754
vt 0.113158 0.938823
vt 0.197707 0.753636
vt 0.906011 0.011535
vt 0.791200 0.554035
vt 0.967179 0.781754
vt 0.296234 0.735280
vt 0.127286 0.806203
vt 0.924366 0.595652
vt 0.334337 0.938488
vt 0.610203 0.789615
vt 0.291525 0.938488
vt 0.339047 0.735280
vt 0.396371 0.938488
vt 0.469030 0.789615
vt 0.653016 0.789615
vt 0.353559 0.938488
vt 0.924366 0.489939
vt 0.582429 0.737048
vt 0.653016 0.718693
vt 0.212385 0.938973
vt 0.924366 0.614007
vt 0.193164 0.938973
vt 0.582429 0.718693
vt 0.013887 0.735280
vt 0.924366 0.843788
vt 0.056700 0.735280
vt 0.013887 0.806203
vt 0.710340 0.851649
vt 0.150351 0.938973
vt 0.266275 0.753771
vt 0.409634 0.735280
vt 0.967179 0.967856
vt 0.924366 0.719720
vt 0.967179 0.738075
vt 0.445965 0.445965
vt 0.834878 0.554035
vt 0.409159 0.567298
vt 0.924366 0.551973
vt 0.334337 0.894809
vt 0.212385 0.895295
vt 0.924366 0.657686
vt 0.270178 0.660162
vt 0.106238 0.627552
vt 0.924366 0.905822
vt 0.667528 0.807970
vt 0.896046 0.924178
vt 0.073144 0.600392
vt 0.967179 0.905822
vt 0.025802 0.529540
vt 0.967179 0.676041
vt 0.009178 0.895145
vt 0.967179 0.924178
vt 0.924366 0.676041
vt 0.013374 0.488571
vt 0.009178 0.445965
vt 0.772844 0.990822
vt 0.924366 0.924178
vt 0.834878 0.990822
vt 0.445965 0.009178
vt 0.464320 0.494011
vt 0.084474 0.806203
vt 0.127287 0.735280
vt 0.070346 0.938823
vt 0.967179 0.595652
vt 0.610203 0.718693
vt 0.511842 0.789615
vt 0.967179 0.489939
vt 0.255198 0.938973
vt 0.539617 0.718693
vt 0.539616 0.737048
vt 0.967179 0.614007
vt 0.967179 0.843788
vt 0.667528 0.851649
vt 0.056700 0.806203
vt 0.155061 0.735281
vt 0.924366 0.862144
vt 0.197873 0.735281
vt 0.967179 0.862144
vt 0.225648 0.735281
vt 0.896046 0.967856
vt 0.268460 0.735281
vt 0.469030 0.718693
vt 0.051990 0.938823
vt 0.853234 0.967856
vt 0.366821 0.735280
vt 0.511842 0.718693
vt 0.009178 0.938823
vt 0.967179 0.719720
vt 0.223463 0.753636
vt 0.853234 0.469035
vt 0.729165 0.990822
vt 0.924366 0.967856
vt 0.906011 0.448322
vt 0.507999 0.494011
vt 0.791200 0.990822
vt 0.853234 0.905822
vt 0.507999 0.057224
vt 0.729165 0.554035
vt 0.464320 0.860202
vt 0.694101 0.928437
vt 0.694101 0.878557
vt 0.772844 0.535680
vt 0.464320 0.930789
vt 0.464320 0.807970
vt 0.353559 0.876454
vt 0.464320 0.878557
vt 0.150351 0.876939
vt 0.353559 0.824223
vt 0.009178 0.876789
vt 0.150351 0.824708
vt 0.291525 0.805867
vt 0.009178 0.824558
vt 0.534907 0.860202
vt 0.291525 0.753636
vt 0.335204 0.824223
vt 0.534907 0.807970
vt 0.663525 0.612645
vt 0.335204 0.876454
vt 0.071212 0.876789
vt 0.663525 0.560413
vt 0.218586 0.876939
vt 0.071212 0.824558
vt 0.526354 0.930788
vt 0.218586 0.824708
vt 0.605494 0.860202
vt 0.526354 0.878557
vt 0.397238 0.753636
vt 0.605494 0.807970
vt 0.397238 0.805867
vt 0.588388 0.928437
vt 0.588388 0.878557
vt 0.791200 0.535680
vt 0.772844 0.096535
vt 0.791200 0.096535
vt 0.079764 0.682714
vt 0.650423 0.928437
vt 0.507999 0.860202
vt 0.150351 0.806353
vt 0.853286 0.009178
vt 0.650423 0.878557
vt 0.729165 0.535680
vt 0.200231 0.806353
vt 0.079764 0.753636
vt 0.131996 0.682714
vt 0.507999 0.807970
vt 0.507999 0.930789
vt 0.291525 0.682714
vt 0.131996 0.753636
vt 0.397238 0.876454
vt 0.507999 0.878557
vt 0.605494 0.737048
vt 0.343756 0.682714
vt 0.397238 0.824223
vt 0.194030 0.876939
vt 0.464320 0.737048
vt 0.657725 0.737048
vt 0.194030 0.824708
vt 0.052856 0.876789
vt 0.605494 0.666126
vt 0.516552 0.737048
vt 0.052856 0.824558
vt 0.335204 0.805867
vt 0.587139 0.789615
vt 0.657725 0.666126
vt 0.335204 0.753636
vt 0.578586 0.860202
vt 0.534907 0.789615
vt 0.578586 0.807970
vt 0.291525 0.824223
vt 0.534907 0.666126
vt 0.291525 0.876454
vt 0.707204 0.612645
vt 0.587139 0.666126
vt 0.009178 0.682714
vt 0.707204 0.560413
vt 0.114890 0.876789
vt 0.061409 0.682714
vt 0.009178 0.753636
vt 0.262265 0.876939
vt 0.114890 0.824558
vt 0.061409 0.753636
vt 0.150351 0.682714
vt 0.262265 0.824708
vt 0.570033 0.930788
vt 0.202583 0.682714
vt 0.220938 0.682714
vt 0.570033 0.878557
vt 0.649173 0.860202
vt 0.273169 0.682714
vt 0.464320 0.666126
vt 0.362112 0.682714
vt 0.649173 0.807970
vt 0.353559 0.753636
vt 0.516552 0.666126
vt 0.270818 0.806353
vt 0.414343 0.682714
vt 0.353559 0.805867
vt 0.632067 0.928437
vt 0.905958 0.466678
vt 0.220938 0.806353
vt 0.834878 0.535680
vt 0.632067 0.878557
vt 0.486160 0.542058
vt 0.853234 0.448322
vt 0.729165 0.096535
vt 0.645170 0.647771
vt 0.486160 0.009178
vt 0.906011 0.905822
vt 0.834878 0.096535
vt 0.545567 0.560413
vt 0.545567 0.647771
vt 0.570033 0.542058
vt 0.710810 0.542058
vt 0.834878 0.009178
vt 0.645170 0.560413
vt 0.570033 0.009178
vt 0.710810 0.009178
vt 0.729165 0.009178
vt 0.667131 0.542058
vt 0.791200 0.009178
vt 0.667131 0.009178
vt 0.772844 0.009178
vt 0.563923 0.647771
vt 0.551678 0.494011
vt 0.968045 0.009178
vt 0.968045 0.445965
vt 0.551678 0.057224
vt 0.464320 0.560413
vt 0.648776 0.494011
vt 0.924366 0.445965
vt 0.464320 0.604092
vt 0.563923 0.604092
vt 0.648776 0.057224
vt 0.924366 0.009178
s 0
usemtl Normal_bake
f 2/4/1 5/13/1 25/82/1
f 20/68/1 1/2/1 2/4/1
f 2/4/1 21/70/1 3/8/1
f 3/8/1 4/10/1 5/13/1
f 5/13/1 22/75/1 8/22/1
f 22/75/1 6/17/1 8/22/1
f 6/17/1 7/19/1 8/22/1
f 8/22/1 23/76/1 24/80/1
f 24/80/1 9/25/1 25/82/1
f 25/82/1 26/87/1 27/88/1
f 27/88/1 10/29/1 28/92/1
f 28/92/1 20/68/1 27/88/1
f 20/68/1 2/4/1 25/82/1
f 2/4/1 3/8/1 5/13/1
f 8/22/1 24/80/1 5/13/1
f 24/80/1 25/82/1 5/13/1
f 25/82/1 27/88/1 20/68/1
usemtl Window_borders
f 65/196/2 31/103/2 16/51/2
f 64/192/3 16/52/3 30/98/3
f 15/47/4 64/193/4 30/99/4
f 62/184/5 15/48/5 14/43/5
f 36/123/6 76/241/6 38/129/6
f 61/180/7 14/45/7 13/39/7
f 75/237/8 12/36/8 37/126/8
f 29/94/9 61/181/9 13/40/9
f 19/63/10 74/233/10 36/122/10
f 58/168/11 29/95/11 11/31/11
f 72/224/12 19/64/12 35/118/12
f 43/141/13 61/182/13 42/138/13
f 76/242/14 55/165/14 57/167/14
f 51/157/15 69/212/15 50/154/15
f 44/143/16 62/187/16 43/140/16
f 52/159/17 70/217/17 51/156/17
f 45/145/18 63/191/18 44/142/18
f 53/161/19 71/221/19 52/158/19
f 46/147/20 64/195/20 45/144/20
f 54/162/21 72/226/21 53/160/21
f 47/149/22 65/199/22 46/146/22
f 39/133/23 59/173/23 40/134/23
f 74/235/24 54/163/24 55/164/24
f 48/151/25 66/202/25 47/148/25
f 41/137/26 58/170/26 39/132/26
f 59/174/27 56/166/27 40/135/27
f 49/153/28 67/205/28 48/150/28
f 42/139/29 60/179/29 41/136/29
f 50/155/30 68/209/30 49/152/30
f 75/239/31 84/265/31 78/248/31
f 66/203/32 17/56/32 31/102/32
f 17/57/33 68/210/33 18/59/33
f 68/211/34 32/107/34 18/60/34
f 32/108/35 70/218/35 33/110/35
f 33/112/36 71/222/36 34/114/36
f 34/115/37 72/227/37 35/119/37
f 59/175/38 11/32/38 12/35/38
f 38/130/39 82/260/39 81/257/39
f 77/245/40 84/266/40 83/262/40
f 78/250/41 79/252/41 80/254/41
f 57/167/42 77/247/42 76/242/42
f 78/251/43 56/166/43 75/238/43
f 27/89/43 38/131/43 10/28/43
f 37/128/42 20/69/42 28/91/42
f 12/38/44 1/3/44 20/67/44
f 11/34/45 2/5/45 1/1/45
f 21/71/46 29/97/46 13/41/46
f 3/9/47 13/42/47 14/44/47
f 14/46/48 4/11/48 3/7/48
f 5/14/49 15/50/49 30/100/49
f 5/15/50 16/53/50 22/73/50
f 16/54/51 6/18/51 22/74/51
f 19/65/52 27/90/52 26/85/52
f 25/83/53 19/66/53 26/86/53
f 25/84/54 34/116/54 35/120/54
f 33/113/55 9/27/55 24/79/55
f 24/81/56 32/109/56 33/111/56
f 23/78/57 18/61/57 32/106/57
f 18/62/58 7/20/58 17/55/58
f 31/105/59 7/21/59 6/16/59
f 83/263/1 81/258/1 82/259/1
f 76/240/39 82/260/39 38/130/39
f 83/264/60 76/243/60 77/244/60
f 37/127/39 81/257/39 75/236/39
f 65/196/2 66/200/2 31/103/2
f 64/192/3 65/197/3 16/52/3
f 15/47/4 63/188/4 64/193/4
f 62/184/5 63/189/5 15/48/5
f 36/123/61 74/232/61 76/241/61
f 61/180/7 62/185/7 14/45/7
f 75/237/62 59/172/62 12/36/62
f 29/94/9 60/176/9 61/181/9
f 19/63/63 73/228/63 74/233/63
f 58/168/11 60/177/11 29/95/11
f 72/224/12 73/229/12 19/64/12
f 43/141/13 62/186/13 61/182/13
f 76/242/14 74/234/14 55/165/14
f 51/157/15 70/216/15 69/212/15
f 44/143/16 63/190/16 62/187/16
f 52/159/17 71/220/17 70/217/17
f 45/145/18 64/194/18 63/191/18
f 53/161/19 72/225/19 71/221/19
f 46/147/20 65/198/20 64/195/20
f 54/162/21 73/230/21 72/226/21
f 47/149/22 66/201/22 65/199/22
f 39/133/23 58/169/23 59/173/23
f 74/235/24 73/231/24 54/163/24
f 48/151/25 67/204/25 66/202/25
f 41/137/26 60/178/26 58/170/26
f 59/174/27 75/238/27 56/166/27
f 49/153/28 68/208/28 67/205/28
f 42/139/29 61/183/29 60/179/29
f 50/155/30 69/213/30 68/209/30
f 75/239/31 81/256/31 84/265/31
f 66/203/32 67/206/32 17/56/32
f 17/57/33 67/207/33 68/210/33
f 68/211/34 69/214/34 32/107/34
f 32/108/35 69/215/35 70/218/35
f 33/112/36 70/219/36 71/222/36
f 34/115/37 71/223/37 72/227/37
f 59/175/64 58/171/64 11/32/64
f 81/257/39 37/127/39 38/130/39
f 37/127/39 28/93/39 38/130/39
f 28/93/39 10/30/39 38/130/39
f 77/245/40 78/249/40 84/266/40
f 78/250/41 77/246/41 79/252/41
f 57/167/42 79/253/42 77/247/42
f 78/251/43 80/255/43 56/166/43
f 27/89/43 36/124/43 38/131/43
f 37/128/42 12/37/42 20/69/42
f 12/38/44 11/33/44 1/3/44
f 11/34/45 29/96/45 2/5/45
f 21/71/46 2/6/46 29/97/46
f 3/9/47 21/72/47 13/42/47
f 14/46/48 15/49/48 4/11/48
f 5/14/49 4/12/49 15/50/49
f 5/15/50 30/101/50 16/53/50
f 16/54/51 31/104/51 6/18/51
f 19/65/52 36/125/52 27/90/52
f 25/83/53 35/121/53 19/66/53
f 25/84/54 9/26/54 34/116/54
f 33/113/55 34/117/55 9/27/55
f 24/81/56 23/77/56 32/109/56
f 23/78/57 8/23/57 18/61/57
f 18/62/58 8/24/58 7/20/58
f 31/105/59 17/58/59 7/21/59
f 83/263/1 84/267/1 81/258/1
f 83/264/60 82/261/60 76/243/60
