# Blender 3.4.1
# www.blender.org
o Window_low_poly
v 0.490393 -0.000000 -1.297545
v 0.461940 -0.000000 -1.391342
v 0.353553 -0.000000 -1.553553
v 0.277785 -0.000000 -1.615735
v 0.191342 0.000000 -1.661940
v -0.000000 0.000000 -1.700000
v -0.097545 0.000000 -1.690393
v -0.191342 0.000000 -1.661940
v -0.415735 0.000000 -1.477785
v -0.500000 0.000000 -0.200000
v 0.490393 0.100000 -1.297545
v 0.500000 0.100000 -1.200000
v 0.415735 0.100000 -1.477785
v 0.353553 0.100000 -1.553553
v 0.277785 0.100000 -1.615735
v 0.097545 0.100000 -1.690393
v -0.097545 0.100000 -1.690393
v -0.191342 0.100000 -1.661940
v -0.490393 0.100000 -1.297545
v 0.500000 -0.000000 -1.200000
v 0.415735 -0.000000 -1.477785
v 0.097545 0.000000 -1.690393
v -0.277785 0.000000 -1.615735
v -0.353553 0.000000 -1.553553
v -0.461940 0.000000 -1.391342
v -0.490393 0.000000 -1.297545
v -0.500000 0.000000 -1.200000
v 0.500000 -0.000000 -0.200000
v 0.461940 0.100000 -1.391342
v 0.191342 0.100000 -1.661940
v -0.000000 0.100000 -1.700000
v -0.277785 0.100000 -1.615735
v -0.353553 0.100000 -1.553553
v -0.415735 0.100000 -1.477785
v -0.461940 0.100000 -1.391342
v -0.500000 0.100000 -1.200000
v 0.500000 0.100000 -0.200000
v -0.500000 0.100000 -0.200000
v 0.598279 -0.050000 -1.319005
v 0.609868 -0.050000 -1.205397
v 0.563567 -0.050000 -1.433437
v 0.507196 -0.050000 -1.538898
v 0.431335 -0.050000 -1.631335
v 0.338898 -0.050000 -1.707196
v 0.233437 -0.050000 -1.763566
v 0.119005 -0.050000 -1.798279
v -0.000000 -0.050000 -1.810000
v -0.119005 -0.050000 -1.798279
v -0.233437 -0.050000 -1.763566
v -0.338898 -0.050000 -1.707196
v -0.431335 -0.050000 -1.631335
v -0.507196 -0.050000 -1.538898
v -0.563567 -0.050000 -1.433437
v -0.598279 -0.050000 -1.319005
v -0.609868 -0.050000 -1.205397
v 0.598279 0.050000 -1.319005
v 0.609868 0.050000 -1.205397
v 0.563567 0.050000 -1.433437
v 0.507196 0.050000 -1.538898
v 0.431335 0.050000 -1.631335
v 0.338898 0.050000 -1.707196
v 0.233437 0.050000 -1.763566
v 0.119005 0.050000 -1.798279
v -0.000000 0.050000 -1.810000
v -0.119005 0.050000 -1.798279
v -0.233437 0.050000 -1.763566
v -0.338898 0.050000 -1.707196
v -0.431335 0.050000 -1.631335
v -0.507196 0.050000 -1.538898
v -0.563567 0.050000 -1.433437
v -0.598279 0.050000 -1.319005
v -0.609868 0.050000 -1.205397
v -0.610000 0.050000 0.000000
v 0.610000 0.050000 0.000000
v -0.610000 -0.050000 0.000000
v 0.610000 -0.050000 0.000000
vn -0.0000 1.0000 -0.0000
vn 0.0407 0.9096 -0.4135
vn 0.1206 0.9096 -0.3976
vn 0.1958 0.9096 -0.3664
vn 0.2636 0.9096 -0.3212
vn 0.3212 0.9096 -0.2636
vn -0.0000 -0.0000 1.0000
vn 0.3664 0.9096 -0.1958
vn -0.4122 0.9102 -0.0406
vn 0.3976 0.9096 -0.1206
vn -0.3976 0.9096 -0.1206
vn 0.7730 -0.0000 -0.6344
vn -0.6344 -0.0000 -0.7730
vn 0.6344 -0.0000 -0.7730
vn -0.7730 -0.0000 -0.6344
vn 0.4714 -0.0000 -0.8819
vn -0.8819 -0.0000 -0.4714
vn 0.2903 -0.0000 -0.9569
vn -0.9569 -0.0000 -0.2903
vn 0.0980 -0.0000 -0.9952
vn 0.9948 -0.0000 -0.1015
vn -0.9948 -0.0000 -0.1015
vn -0.0980 -0.0000 -0.9952
vn 0.9569 -0.0000 -0.2903
vn 0.4139 0.9103 -0.0000
vn -0.2903 -0.0000 -0.9569
vn 0.8819 -0.0000 -0.4714
vn -0.4714 -0.0000 -0.8819
vn -1.0000 -0.0000 -0.0001
vn -0.0407 0.9096 -0.4135
vn -0.1206 0.9096 -0.3976
vn -0.1958 0.9096 -0.3664
vn -0.2636 0.9096 -0.3212
vn -0.3212 0.9096 -0.2636
vn -0.3664 0.9096 -0.1958
vn 0.4122 0.9102 -0.0406
vn -0.0000 0.9701 0.2425
vn -0.4139 0.9103 -0.0000
vn 1.0000 -0.0000 -0.0001
vn 1.0000 -0.0000 -0.0000
vn -1.0000 -0.0000 -0.0000
vn -0.9952 -0.0000 0.0980
vn -0.9569 -0.0000 0.2903
vn -0.8819 -0.0000 0.4714
vn -0.7730 -0.0000 0.6344
vn -0.6344 -0.0000 0.7730
vn -0.4714 -0.0000 0.8819
vn -0.2903 -0.0000 0.9569
vn -0.0980 -0.0000 0.9952
vn 0.9952 -0.0000 0.0980
vn 0.9569 -0.0000 0.2903
vn 0.8819 -0.0000 0.4714
vn 0.7730 -0.0000 0.6344
vn 0.6344 -0.0000 0.7730
vn 0.4714 -0.0000 0.8819
vn 0.2903 -0.0000 0.9569
vn 0.0980 -0.0000 0.9952
vn -0.0000 -0.0000 -1.0000
vn -0.4132 0.9097 -0.0421
vn 0.4142 0.9102 -0.0000
vn 0.4132 0.9097 -0.0421
vn -0.4142 0.9102 -0.0000
vt 0.823150 0.774341
vt 0.454671 0.503148
vt 0.132340 0.833371
vt 0.441798 0.545583
vt 0.778805 0.774341
vt 0.109385 0.833371
vt 0.583861 0.774844
vt 0.392762 0.618971
vt 0.472216 0.774844
vt 0.358483 0.647103
vt 0.539516 0.774844
vt 0.247427 0.878613
vt 0.319375 0.668007
vt 0.291772 0.878613
vt 0.765606 0.832782
vt 0.454742 0.833024
vt 0.232808 0.685226
vt 0.574105 0.878527
vt 0.188677 0.680879
vt 0.844200 0.630189
vt 0.410397 0.833024
vt 0.146242 0.668007
vt 0.765606 0.774341
vt 0.799855 0.630189
vt 0.044723 0.584692
vt 0.844200 0.571748
vt 0.778805 0.832782
vt 0.934960 0.472216
vt 0.006600 0.006600
vt 0.889718 0.006600
vt 0.611693 0.693843
vt 0.476922 0.707182
vt 0.132340 0.878613
vt 0.823150 0.819583
vt 0.521266 0.707042
vt 0.646585 0.549506
vt 0.948159 0.006600
vt 0.176685 0.878613
vt 0.146077 0.752873
vt 0.392320 0.752873
vt 0.065040 0.878613
vt 0.516561 0.820086
vt 0.078777 0.752873
vt 0.472216 0.820086
vt 0.190421 0.752873
vt 0.583861 0.820086
vt 0.011477 0.752873
vt 0.123122 0.752873
vt 0.539516 0.820086
vt 0.247427 0.833371
vt 0.257721 0.698425
vt 0.656038 0.626196
vt 0.721261 0.878024
vt 0.529760 0.833285
vt 0.844200 0.675431
vt 0.588739 0.626196
vt 0.477094 0.693843
vt 0.410397 0.878266
vt 0.521439 0.693843
vt 0.280676 0.752873
vt 0.765606 0.819583
vt 0.799855 0.675431
vt 0.586475 0.707182
vt 0.723338 0.693843
vt 0.516561 0.878527
vt 0.006600 0.878613
vt 0.176685 0.833371
vt 0.459017 0.459017
vt 0.993401 0.006600
vt 0.420894 0.584692
vt 0.065040 0.833371
vt 0.516561 0.774844
vt 0.721261 0.832782
vt 0.529760 0.878527
vt 0.276939 0.680879
vt 0.107133 0.647103
vt 0.189884 0.878613
vt 0.721261 0.774341
vt 0.823150 0.832782
vt 0.072855 0.618971
vt 0.234228 0.878613
vt 0.023819 0.545583
vt 0.050944 0.833371
vt 0.799855 0.571748
vt 0.516561 0.833285
vt 0.006600 0.833371
vt 0.010946 0.503148
vt 0.006600 0.459017
vt 0.934960 0.924634
vt 0.472216 0.833285
vt 0.993401 0.459017
vt 0.459017 0.006600
vt 0.889718 0.459017
vt 0.347975 0.752873
vt 0.656038 0.693843
vt 0.778805 0.819583
vt 0.109385 0.878613
vt 0.611693 0.626196
vt 0.055822 0.752873
vt 0.291772 0.833371
vt 0.765606 0.878024
vt 0.544394 0.626196
vt 0.213376 0.698425
vt 0.574105 0.833285
vt 0.454742 0.878266
vt 0.721261 0.819583
vt 0.325020 0.752873
vt 0.544394 0.693843
vt 0.189884 0.833371
vt 0.588739 0.693843
vt 0.234228 0.833371
vt 0.678993 0.626196
vt 0.823150 0.878024
vt 0.723338 0.626196
vt 0.477094 0.626196
vt 0.844200 0.616990
vt 0.778805 0.878024
vt 0.678993 0.693843
vt 0.521439 0.626196
vt 0.799855 0.616990
vt 0.050944 0.878613
vt 0.542131 0.707042
vt 0.578729 0.009036
vt 0.889718 0.924634
vt 0.472216 0.878527
vt 0.646539 0.097089
vt 0.565485 0.056365
vt 0.948159 0.459017
vt 0.934960 0.459017
vt 0.565485 0.508783
vt 0.934960 0.006600
vt 0.578684 0.461453
vt 0.889718 0.472216
vt 0.662820 0.761142
vt 0.708062 0.826006
vt 0.708062 0.774341
vt 0.772836 0.006600
vt 0.779702 0.761142
vt 0.662820 0.707042
vt 0.073899 0.820172
vt 0.779702 0.707042
vt 0.258080 0.820172
vt 0.073899 0.766072
vt 0.141199 0.820172
vt 0.258080 0.766072
vt 0.410397 0.752526
vt 0.141199 0.766072
vt 0.741415 0.693495
vt 0.410397 0.698425
vt 0.786656 0.571748
vt 0.741415 0.639395
vt 0.604380 0.761142
vt 0.786656 0.625849
vt 0.006600 0.820172
vt 0.604380 0.707042
vt 0.199639 0.820172
vt 0.006600 0.766072
vt 0.316521 0.820172
vt 0.199639 0.766072
vt 0.410397 0.819825
vt 0.316521 0.766072
vt 0.766503 0.707042
vt 0.410397 0.765725
vt 0.766503 0.761142
vt 0.604380 0.826006
vt 0.604380 0.774341
vt 0.831277 0.551942
vt 0.606815 0.639395
vt 0.662821 0.826006
vt 0.708062 0.761142
vt 0.472216 0.761645
vt 0.662821 0.774341
vt 0.701196 0.551942
vt 0.523881 0.761645
vt 0.818078 0.006600
vt 0.343097 0.698425
vt 0.660916 0.639395
vt 0.708062 0.707042
vt 0.824944 0.761142
vt 0.141199 0.698425
vt 0.397198 0.698425
vt 0.119141 0.820172
vt 0.824944 0.707042
vt 0.073899 0.698425
vt 0.195299 0.698425
vt 0.119141 0.766072
vt 0.303322 0.820172
vt 0.006600 0.698425
vt 0.128000 0.698425
vt 0.303322 0.766072
vt 0.186440 0.820172
vt 0.606815 0.571748
vt 0.060700 0.698425
vt 0.186440 0.766072
vt 0.455639 0.752525
vt 0.262599 0.752873
vt 0.660916 0.571748
vt 0.455639 0.698425
vt 0.786656 0.693495
vt 0.208498 0.752873
vt 0.786656 0.639395
vt 0.741415 0.571748
vt 0.539516 0.571748
vt 0.741415 0.625849
vt 0.649621 0.761142
vt 0.593616 0.571748
vt 0.472216 0.639395
vt 0.649621 0.707042
vt 0.051841 0.820172
vt 0.526317 0.639395
vt 0.275798 0.698425
vt 0.244881 0.820172
vt 0.051841 0.766072
vt 0.329898 0.698425
vt 0.539516 0.639395
vt 0.244881 0.766072
vt 0.361763 0.820172
vt 0.593616 0.639395
vt 0.674115 0.571748
vt 0.361763 0.766072
vt 0.455639 0.819825
vt 0.728216 0.571748
vt 0.472216 0.571748
vt 0.674115 0.639395
vt 0.455639 0.765725
vt 0.721261 0.707042
vt 0.526317 0.571748
vt 0.591181 0.761645
vt 0.728216 0.639395
vt 0.721261 0.761142
vt 0.649621 0.826006
vt 0.539516 0.761645
vt 0.649621 0.774341
vt 0.876519 0.551942
vt 0.633340 0.006600
vt 0.633340 0.551942
vt 0.759637 0.558549
vt 0.876519 0.006600
vt 0.472216 0.558549
vt 0.701196 0.006600
vt 0.818078 0.551943
vt 0.759637 0.006600
vt 0.472216 0.006600
vt 0.714395 0.558549
vt 0.831277 0.006600
vt 0.714395 0.006600
vt 0.772836 0.551943
s 0
f 2/4/1 5/13/1 25/82/1
f 63/196/2 31/103/2 16/51/2
f 62/192/3 16/52/3 30/98/3
f 15/47/4 62/193/4 30/99/4
f 60/184/5 15/48/5 14/43/5
f 59/180/6 14/45/6 13/39/6
f 74/242/7 75/244/7 76/246/7
f 29/94/8 59/181/8 13/40/8
f 19/63/9 72/232/9 36/122/9
f 56/168/10 29/95/10 11/31/10
f 70/224/11 19/64/11 35/118/11
f 43/143/12 59/182/12 42/140/12
f 51/159/13 67/212/13 50/156/13
f 44/145/14 60/187/14 43/142/14
f 52/161/15 68/217/15 51/158/15
f 45/147/16 61/191/16 44/144/16
f 53/163/17 69/221/17 52/160/17
f 46/149/18 62/195/18 45/146/18
f 54/164/19 70/226/19 53/162/19
f 47/151/20 63/199/20 46/148/20
f 39/135/21 57/172/21 40/136/21
f 72/233/22 54/165/22 55/166/22
f 48/153/23 64/202/23 47/150/23
f 41/139/24 56/170/24 39/134/24
f 57/173/25 37/126/25 74/240/25
f 49/155/26 65/205/26 48/152/26
f 42/141/27 58/179/27 41/138/27
f 50/157/28 66/209/28 49/154/28
f 75/245/29 72/234/29 55/167/29
f 64/203/30 17/56/30 31/102/30
f 17/57/31 66/210/31 18/59/31
f 66/211/32 32/107/32 18/60/32
f 32/108/33 68/218/33 33/110/33
f 33/112/34 69/222/34 34/114/34
f 34/115/35 70/227/35 35/119/35
f 57/174/36 11/32/36 12/35/36
f 73/239/37 37/127/37 38/130/37
f 38/132/38 72/235/38 73/236/38
f 76/247/39 57/175/39 74/241/39
f 27/89/40 38/133/40 10/28/40
f 37/128/41 20/69/41 28/91/41
f 12/38/42 1/3/42 20/67/42
f 11/34/43 2/5/43 1/1/43
f 21/71/44 29/97/44 13/41/44
f 3/9/45 13/42/45 14/44/45
f 14/46/46 4/11/46 3/7/46
f 5/14/47 15/50/47 30/100/47
f 5/15/48 16/53/48 22/73/48
f 16/54/49 6/18/49 22/74/49
f 19/65/50 27/90/50 26/85/50
f 25/83/51 19/66/51 26/86/51
f 25/84/52 34/116/52 35/120/52
f 33/113/53 9/27/53 24/79/53
f 24/81/54 32/109/54 33/111/54
f 23/78/55 18/61/55 32/106/55
f 18/62/56 7/20/56 17/55/56
f 31/105/57 7/21/57 6/16/57
f 37/129/58 10/30/58 38/131/58
f 20/68/1 1/2/1 2/4/1
f 2/4/1 21/70/1 3/8/1
f 3/8/1 4/10/1 5/13/1
f 5/13/1 22/75/1 8/22/1
f 22/75/1 6/17/1 8/22/1
f 6/17/1 7/19/1 8/22/1
f 8/22/1 23/76/1 24/80/1
f 24/80/1 9/25/1 25/82/1
f 25/82/1 26/87/1 27/88/1
f 27/88/1 10/29/1 28/92/1
f 28/92/1 20/68/1 27/88/1
f 20/68/1 2/4/1 25/82/1
f 2/4/1 3/8/1 5/13/1
f 8/22/1 24/80/1 5/13/1
f 24/80/1 25/82/1 5/13/1
f 25/82/1 27/88/1 20/68/1
f 63/196/2 64/200/2 31/103/2
f 62/192/3 63/197/3 16/52/3
f 15/47/4 61/188/4 62/193/4
f 60/184/5 61/189/5 15/48/5
f 59/180/6 60/185/6 14/45/6
f 74/242/7 73/237/7 75/244/7
f 29/94/8 58/176/8 59/181/8
f 19/63/59 71/228/59 72/232/59
f 56/168/10 58/177/10 29/95/10
f 70/224/11 71/229/11 19/64/11
f 43/143/12 60/186/12 59/182/12
f 51/159/13 68/216/13 67/212/13
f 44/145/14 61/190/14 60/187/14
f 52/161/15 69/220/15 68/217/15
f 45/147/16 62/194/16 61/191/16
f 53/163/17 70/225/17 69/221/17
f 46/149/18 63/198/18 62/195/18
f 54/164/19 71/230/19 70/226/19
f 47/151/20 64/201/20 63/199/20
f 39/135/21 56/169/21 57/172/21
f 72/233/22 71/231/22 54/165/22
f 48/153/23 65/204/23 64/202/23
f 41/139/24 58/178/24 56/170/24
f 57/173/60 12/36/60 37/126/60
f 49/155/26 66/208/26 65/205/26
f 42/141/27 59/183/27 58/179/27
f 50/157/28 67/213/28 66/209/28
f 75/245/29 73/238/29 72/234/29
f 64/203/30 65/206/30 17/56/30
f 17/57/31 65/207/31 66/210/31
f 66/211/32 67/214/32 32/107/32
f 32/108/33 67/215/33 68/218/33
f 33/112/34 68/219/34 69/222/34
f 34/115/35 69/223/35 70/227/35
f 57/174/61 56/171/61 11/32/61
f 73/239/37 74/243/37 37/127/37
f 38/132/62 36/123/62 72/235/62
f 76/247/39 40/137/39 57/175/39
f 27/89/40 36/124/40 38/133/40
f 37/128/41 12/37/41 20/69/41
f 12/38/42 11/33/42 1/3/42
f 11/34/43 29/96/43 2/5/43
f 21/71/44 2/6/44 29/97/44
f 3/9/45 21/72/45 13/42/45
f 14/46/46 15/49/46 4/11/46
f 5/14/47 4/12/47 15/50/47
f 5/15/48 30/101/48 16/53/48
f 16/54/49 31/104/49 6/18/49
f 19/65/50 36/125/50 27/90/50
f 25/83/51 35/121/51 19/66/51
f 25/84/52 9/26/52 34/116/52
f 33/113/53 34/117/53 9/27/53
f 24/81/54 23/77/54 32/109/54
f 23/78/55 8/23/55 18/61/55
f 18/62/56 8/24/56 7/20/56
f 31/105/57 17/58/57 7/21/57
f 37/129/58 28/93/58 10/30/58
